<?xml version="1.0" encoding="UTF-8"?>
<svg width="736px" height="620px" viewBox="0 0 736 620" version="1.1" xmlns="http://www.w3.org/2000/svg" xmlns:xlink="http://www.w3.org/1999/xlink">
    <!-- Generator: Sketch 52.2 (67145) - http://www.bohemiancoding.com/sketch -->
    <title>Group Copy</title>
    <desc>Created with Sketch.</desc>
    <defs>
        <linearGradient x1="0%" y1="0%" x2="50%" y2="100%" id="linearGradient-1">
            <stop stop-color="#FFD7BB" offset="0%"></stop>
            <stop stop-color="#FFCDD4" offset="100%"></stop>
        </linearGradient>
        <linearGradient x1="50%" y1="-2.48949813e-15%" x2="50%" y2="100%" id="linearGradient-2">
            <stop stop-color="#FFB5AB" offset="0%"></stop>
            <stop stop-color="#FF9A8D" offset="100%"></stop>
        </linearGradient>
        <linearGradient x1="50%" y1="18.0883712%" x2="50%" y2="97.6065751%" id="linearGradient-3">
            <stop stop-color="#FFE1DA" offset="0%"></stop>
            <stop stop-color="#FFD9CF" offset="100%"></stop>
        </linearGradient>
        <linearGradient x1="50%" y1="0%" x2="50%" y2="98.4442738%" id="linearGradient-4">
            <stop stop-color="#FFE5ED" offset="0%"></stop>
            <stop stop-color="#FFD1DF" offset="100%"></stop>
        </linearGradient>
        <linearGradient x1="50%" y1="0%" x2="50%" y2="58.8652363%" id="linearGradient-5">
            <stop stop-color="#FFAACC" offset="0%"></stop>
            <stop stop-color="#FF97C2" offset="100%"></stop>
        </linearGradient>
        <linearGradient x1="50%" y1="0%" x2="50%" y2="98.4442738%" id="linearGradient-6">
            <stop stop-color="#FFDDE5" offset="0%"></stop>
            <stop stop-color="#FFD1DA" offset="100%"></stop>
        </linearGradient>
        <linearGradient x1="50%" y1="-2.77555756e-15%" x2="50%" y2="52.6626826%" id="linearGradient-7">
            <stop stop-color="#FFB3C9" offset="0%"></stop>
            <stop stop-color="#FF87AB" offset="100%"></stop>
        </linearGradient>
        <linearGradient x1="50%" y1="0%" x2="50%" y2="100%" id="linearGradient-8">
            <stop stop-color="#FFE9E9" offset="0%"></stop>
            <stop stop-color="#FDD8D8" offset="100%"></stop>
        </linearGradient>
        <linearGradient x1="50%" y1="0%" x2="50%" y2="100%" id="linearGradient-9">
            <stop stop-color="#FFB4BD" offset="0%"></stop>
            <stop stop-color="#FF97A3" offset="100%"></stop>
        </linearGradient>
        <linearGradient x1="50%" y1="-2.48949813e-15%" x2="50%" y2="100%" id="linearGradient-10">
            <stop stop-color="#FFE8DC" offset="0%"></stop>
            <stop stop-color="#FFD6BF" offset="100%"></stop>
        </linearGradient>
        <linearGradient x1="50%" y1="0%" x2="50%" y2="94.7365636%" id="linearGradient-11">
            <stop stop-color="#FFC1A7" offset="0%"></stop>
            <stop stop-color="#FFA782" offset="100%"></stop>
        </linearGradient>
        <linearGradient x1="50%" y1="0%" x2="50%" y2="100%" id="linearGradient-12">
            <stop stop-color="#FBE9D3" offset="0%"></stop>
            <stop stop-color="#FDDFC4" offset="100%"></stop>
        </linearGradient>
        <linearGradient x1="50%" y1="-2.48949813e-15%" x2="50%" y2="100%" id="linearGradient-13">
            <stop stop-color="#FDC8A3" offset="0%"></stop>
            <stop stop-color="#FFB887" offset="100%"></stop>
        </linearGradient>
        <path d="M0,0 L624,0 L343.150705,353.501429 C329.958319,370.106518 305.802693,372.873059 289.197605,359.680673 C286.947135,357.892723 284.904521,355.857754 283.108144,353.614003 L0,0 Z" id="path-14"></path>
        <linearGradient x1="5.33712165%" y1="4.16333634e-15%" x2="67.1640216%" y2="89.1846197%" id="linearGradient-16">
            <stop stop-color="#FFBD8F" offset="0%"></stop>
            <stop stop-color="#FF98C3" offset="100%"></stop>
        </linearGradient>
        <linearGradient x1="20.4422887%" y1="3.88578059e-14%" x2="96.9492305%" y2="95.6902849%" id="linearGradient-17">
            <stop stop-color="#FFFFFF" offset="0%"></stop>
            <stop stop-color="#FFFFFF" stop-opacity="0.1" offset="100%"></stop>
        </linearGradient>
        <path d="M215.813276,118.353682 L391.232133,118.353682 C403.962524,118.353682 416.171512,123.410811 425.173258,132.412557 L675.764471,383.003769 C684.766217,392.005515 689.823345,404.214503 689.823345,416.944895 L689.823345,592.363752 C689.823345,616.84467 671.399871,637.403118 647.065377,640.076655 L198.219851,689.389579 C158.693188,693.732221 123.13009,665.209936 118.787448,625.683273 C118.213254,620.456965 118.213254,615.183485 118.787448,609.957176 L168.100373,161.11165 C170.77391,136.777156 191.332357,118.353682 215.813276,118.353682 Z" id="path-18"></path>
    </defs>
    <g id="Powerpoint-Hold" stroke="none" stroke-width="1" fill="none" fill-rule="evenodd">
        <g id="Powerpoint-Hold-Slide" transform="translate(-593.000000, -229.000000)">
            <g id="Group-Copy" transform="translate(550.800000, 44.400000)">
                <polygon id="Rectangle-5" transform="translate(667.293919, 690.171369) rotate(48.000000) translate(-667.293919, -690.171369) " points="460.575529 387.744984 768.501913 379.794495 874.012309 1000.54824 496.269675 979.7074"></polygon>
                <path d="M340.096122,760.978427 C379.775644,802.215545 430.003741,830.223979 488.446291,765.699497 C546.88884,701.175014 728.805338,467.085081 757.871023,431.251687 C786.936709,395.418294 783.101457,361.7946 755.493298,335.150148 C737.087858,317.387181 699.334301,383.532771 642.232626,533.586918 L430.003741,772.068679 C343.612313,737.183766 313.643107,733.487015 340.096122,760.978427 Z" id="side-shadow" fill="#DADEEB"></path>
                <polygon id="Rectangle-86-Copy" fill="url(#linearGradient-1)" points="86.4 372 720 372 402 768"></polygon>
                <polygon id="Rectangle-68-Copy-5" fill="url(#linearGradient-2)" points="384 379.2 391.2 386.770044 391.2 736.8 384 736.8"></polygon>
                <path d="M384,456 L398.4,456 L398.4,753.6 L326.4,705.6 L326.4,456 L340.8,456 L340.8,367.2 L384,367.2 L384,456 Z" id="Combined-Shape-Copy-20" fill="url(#linearGradient-3)"></path>
                <path d="M321.6,432 L352.8,432 L352.8,758.4 L314.4,710.4 L314.4,439.2 C314.4,435.22355 317.62355,432 321.6,432 Z" id="Rectangle-71-Copy-7" fill="url(#linearGradient-3)"></path>
                <polygon id="Rectangle-71-Copy-6" fill="url(#linearGradient-2)" points="352.8 432 362.4 436.8 362.4 763.2 352.8 763.2"></polygon>
                <path d="M398.4,456 L408.950288,461.54626 C411.317573,462.790736 412.8,465.244831 412.8,467.919295 L412.8,765.6 L398.4,765.6 L398.4,456 Z" id="Rectangle-68-Copy-4" fill="url(#linearGradient-2)"></path>
                <path d="M530.4,400.8 L588,400.8 L588,578.4 L523.2,578.4 L523.2,408 C523.2,404.02355 526.42355,400.8 530.4,400.8 Z" id="Rectangle-66-Copy-7" fill="url(#linearGradient-4)"></path>
                <path d="M588,400.8 L605.296158,408.39916 C607.911356,409.548162 609.6,412.134515 609.6,414.990994 L609.6,578.4 L588,578.4 L588,400.8 Z" id="Rectangle-66-Copy-6" fill="url(#linearGradient-5)"></path>
                <polygon id="Rectangle-62-Copy-3" fill="url(#linearGradient-6)" points="492 468 549.6 468 549.6 643.2 492 667.2"></polygon>
                <path d="M547.2,468 L568.174772,476.34681 C570.001305,477.07367 571.2,478.840806 571.2,480.806651 L571.2,619.2 L547.2,643.2 L547.2,468 Z" id="Rectangle-63-Copy-3" fill="url(#linearGradient-7)"></path>
                <path d="M432,432 L480,432 L480,722.4 L424.8,746.4 L424.8,439.2 C424.8,435.22355 428.02355,432 432,432 Z" id="Rectangle-60-Copy-3" fill="url(#linearGradient-8)"></path>
                <path d="M480,432 L509.107591,443.813146 C511.823371,444.915329 513.6,447.553732 513.6,450.484649 L513.6,698.4 L480,722.4 L480,432 Z" id="Rectangle-61-Copy-3" fill="url(#linearGradient-9)"></path>
                <rect id="Rectangle-58-Copy-3" fill="url(#linearGradient-10)" x="264" y="446.4" width="26.4" height="177.6"></rect>
                <path d="M290.4,446.4 L303.052619,452.323094 C305.583295,453.507784 307.2,456.0497 307.2,458.843947 L307.2,650.4 L290.4,626.4 L290.4,446.4 Z" id="Rectangle-59-Copy-3" fill="url(#linearGradient-11)"></path>
                <path d="M187.2,405.6 L244.8,405.6 L244.8,633.6 L180,552 L180,412.8 C180,408.82355 183.22355,405.6 187.2,405.6 Z" id="Rectangle-56-Copy-3" fill="url(#linearGradient-12)"></path>
                <path d="M244.8,405.6 L261.301954,418.821554 C263.00744,420.188009 264,422.255109 264,424.440488 L264,643.2 L244.8,643.2 L244.8,405.6 Z" id="Rectangle-57-Copy-3" fill="url(#linearGradient-13)"></path>
                <g id="Rectangle-89-Copy" transform="translate(91.200000, 374.400000)">
                    <mask id="mask-15" fill="white">
                        <use xlink:href="#path-14"></use>
                    </mask>
                    <g id="Mask"></g>
                    <polygon id="Rectangle-89" fill="url(#linearGradient-16)" mask="url(#mask-15)" points="237.6 302.4 387.12725 302.4 331.306112 367.346587 295.175844 367.346587"></polygon>
                    <polygon id="Rectangle" fill="#000000" opacity="0.200000003" style="mix-blend-mode: overlay;" mask="url(#mask-15)" points="249.6 316.8 386.4 316.8 386.4 324 249.6 324"></polygon>
                    <rect id="Rectangle-Copy-4" fill="#000000" opacity="0.200000003" style="mix-blend-mode: overlay;" mask="url(#mask-15)" x="240" y="302.4" width="146.4" height="7.2"></rect>
                    <polygon id="Rectangle-Copy-2" fill="#000000" opacity="0.149999991" style="mix-blend-mode: overlay;" mask="url(#mask-15)" points="249.6 331.2 386.4 331.2 386.4 338.4 249.6 338.4"></polygon>
                    <polygon id="Rectangle-Copy-3" fill="#000000" opacity="0.100000001" style="mix-blend-mode: overlay;" mask="url(#mask-15)" points="249.6 345.6 386.4 345.6 386.4 352.8 249.6 352.8"></polygon>
                    <polygon id="Rectangle-Copy" fill="#000000" opacity="0.049999997" style="mix-blend-mode: overlay;" mask="url(#mask-15)" points="249.6 360 386.4 360 386.4 367.2 249.6 367.2"></polygon>
                </g>
                <polygon id="Rectangle-81-Copy-5" fill="url(#linearGradient-17)" opacity="0.5" points="144 372 300.857812 372 492.090751 655.04196 478.207077 672.514772"></polygon>
                <polygon id="Rectangle-81-Copy-4" fill="url(#linearGradient-17)" opacity="0.5" transform="translate(490.100366, 521.833544) scale(-1, 1) translate(-490.100366, -521.833544) " points="319.2 372 476.057813 372 661.000733 657.740526 649.366358 671.667088"></polygon>
                <g id="Mask-Copy-16" transform="translate(404.090074, 404.090074) rotate(-45.000000) translate(-404.090074, -404.090074) ">
                    <path stroke="#2D2441" stroke-width="36" d="M215.813276,136.353682 C200.512701,136.353682 187.663672,147.868354 185.992711,163.077412 L136.679787,611.922938 C136.249141,615.84267 136.249141,619.79778 136.679787,623.717511 C139.936768,653.362508 166.609092,674.754222 196.254089,671.49724 L645.099615,622.184316 C660.308674,620.513355 671.823345,607.664326 671.823345,592.363752 L671.823345,416.944895 C671.823345,408.9884 668.66264,401.357782 663.036548,395.731691 L412.445336,145.140479 C406.819245,139.514387 399.188627,136.353682 391.232133,136.353682 L215.813276,136.353682 Z" stroke-linejoin="square"></path>
                    <use stroke="#FFFFFF" stroke-width="24" xlink:href="#path-18"></use>
                </g>
                <path d="M449.268165,556.941096 C447.154691,557.569982 445.012439,558.278329 442.886077,559.040504 L425.903908,549.539026 L431.554561,563.650078 C422.537856,567.762063 415.700104,572.018338 415.700104,573.745309 C415.700104,577.720857 444.438196,570.062713 467.573145,577.37498 C490.708095,584.687247 495.670676,622.534467 486.554332,637.427693 C480.368064,647.534101 482.092871,649.625906 472.759493,643.52319 L464.802549,615.139105 L461.637654,636.299331 C458.399011,634.265427 454.575336,631.938577 450.039606,629.317575 C426.398346,615.656311 413.426177,607.300348 411.123101,604.249686 C424.552931,627.400328 429.89514,653.198973 427.149727,681.64562 C424.404314,710.092267 421.876976,730.388963 419.567714,742.535707 L394.705458,742.535707 C399.773565,715.916128 402.984163,694.102705 404.337252,677.09544 C406.366884,651.584542 407.603008,629.317575 401.252712,617.656181 C397.019182,609.881919 395.284409,607.430682 396.048392,610.30247 C391.441515,624.728713 387.239355,637.177867 383.441913,647.649932 L369.035153,638.522082 L378.507708,660.721577 C370.987408,679.74088 365.413767,689.250532 361.786785,689.250532 C352.736453,689.250532 335.727705,663.052684 342.090792,641.753258 C346.33285,627.553641 355.430451,612.908682 369.383593,597.818381 C342.276829,600.338936 325.716799,602.040959 319.703503,602.92445 C318.608323,603.085357 317.211073,603.42077 315.61606,603.8385 L317.181813,579.651402 L304.031413,606.684606 C293.893779,608.546673 284.268105,607.498583 289.446934,590.908324 C297.720365,564.404578 300.461231,547.948354 325.939439,554.22358 C337.911763,557.172336 355.849758,563.679579 379.753422,573.745309 C379.972146,570.908254 377.954536,566.280262 373.700591,559.861332 C365.090565,546.869353 356.145805,540.562324 348.346196,537.409311 L353.56402,522.178713 L341.241642,535.23191 C333.01465,533.455408 327.082291,534.541902 325.939439,532.538744 C323.528264,528.312507 354.218307,492.923157 370.619345,512.011261 C381.55337,524.736663 389.582074,543.780486 394.705458,569.142728 C396.560714,554.551481 402.033261,543.758899 411.123101,536.764981 C424.757861,526.274104 451.458764,519.306383 469.858698,536.764981 C488.258632,554.22358 483.210419,556.056661 467.573145,554.22358 C465.06785,553.929896 462.033828,554.12936 458.704804,554.68784 L446.722354,547.30411 L449.268165,556.941096 Z" id="Combined-Shape" fill="#2D2441"></path>
                <path d="M705.674976,372 L103.075321,372 C99.5745068,372.181559 95.4199082,377.984114 99.7099469,384.53715 C104.068792,391.195287 95.9542018,384.53715 95.805637,384.53715 C95.7065939,384.53715 93.604975,381.939468 89.5007805,376.744105 L89.785549,372 L76.8,372 L213.6,230.4 L585.6,230.4 L729.6,372 L717.515537,372 L717.777012,376.35604 C713.672817,381.551403 711.571199,384.149084 711.472155,384.149084 C711.323591,384.149084 703.209001,390.807221 707.567846,384.149084 C711.261893,378.506425 708.694655,373.420211 705.674976,372 Z" id="Combined-Shape-Copy-19" fill="#2D2441"></path>
                <path d="M226.9824,321.4464 L226.9824,344.0256 L236.0064,344.0256 L236.0064,350.4 L219.456,350.4 L219.456,321.4464 L226.9824,321.4464 Z M255.4752,335.9232 C255.4752,337.075206 255.692798,338.137595 256.128,339.1104 C256.563202,340.083205 257.151996,340.927996 257.8944,341.6448 C258.636804,342.361604 259.500795,342.918398 260.4864,343.3152 C261.472005,343.712002 262.515194,343.9104 263.616,343.9104 C264.716806,343.9104 265.759995,343.712002 266.7456,343.3152 C267.731205,342.918398 268.601596,342.361604 269.3568,341.6448 C270.112004,340.927996 270.707198,340.083205 271.1424,339.1104 C271.577602,338.137595 271.7952,337.075206 271.7952,335.9232 C271.7952,334.771194 271.577602,333.708805 271.1424,332.736 C270.707198,331.763195 270.112004,330.918404 269.3568,330.2016 C268.601596,329.484796 267.731205,328.928002 266.7456,328.5312 C265.759995,328.134398 264.716806,327.936 263.616,327.936 C262.515194,327.936 261.472005,328.134398 260.4864,328.5312 C259.500795,328.928002 258.636804,329.484796 257.8944,330.2016 C257.151996,330.918404 256.563202,331.763195 256.128,332.736 C255.692798,333.708805 255.4752,334.771194 255.4752,335.9232 Z M247.6032,335.9232 C247.6032,333.772789 247.999996,331.769609 248.7936,329.9136 C249.587204,328.057591 250.687993,326.438407 252.096,325.056 C253.504007,323.673593 255.18719,322.592004 257.1456,321.8112 C259.10401,321.030396 261.260788,320.64 263.616,320.64 C265.945612,320.64 268.09599,321.030396 270.0672,321.8112 C272.03841,322.592004 273.734393,323.673593 275.1552,325.056 C276.576007,326.438407 277.683196,328.057591 278.4768,329.9136 C279.270404,331.769609 279.6672,333.772789 279.6672,335.9232 C279.6672,338.073611 279.270404,340.076791 278.4768,341.9328 C277.683196,343.788809 276.576007,345.407993 275.1552,346.7904 C273.734393,348.172807 272.03841,349.254396 270.0672,350.0352 C268.09599,350.816004 265.945612,351.2064 263.616,351.2064 C261.260788,351.2064 259.10401,350.816004 257.1456,350.0352 C255.18719,349.254396 253.504007,348.172807 252.096,346.7904 C250.687993,345.407993 249.587204,343.788809 248.7936,341.9328 C247.999996,340.076791 247.6032,338.073611 247.6032,335.9232 Z M309.9264,328.8576 C309.107196,328.191997 308.288004,327.699202 307.4688,327.3792 C306.649596,327.059198 305.856004,326.8992 305.088,326.8992 C304.115195,326.8992 303.321603,327.129598 302.7072,327.5904 C302.092797,328.051202 301.7856,328.652796 301.7856,329.3952 C301.7856,329.907203 301.939198,330.329598 302.2464,330.6624 C302.553602,330.995202 302.956798,331.283199 303.456,331.5264 C303.955202,331.769601 304.518397,331.980799 305.1456,332.16 C305.772803,332.339201 306.393597,332.531199 307.008,332.736 C309.465612,333.555204 311.263994,334.649593 312.4032,336.0192 C313.542406,337.388807 314.112,339.174389 314.112,341.376 C314.112,342.860807 313.862402,344.204794 313.3632,345.408 C312.863998,346.611206 312.134405,347.641596 311.1744,348.4992 C310.214395,349.356804 309.036807,350.022398 307.6416,350.496 C306.246393,350.969602 304.665609,351.2064 302.8992,351.2064 C299.238382,351.2064 295.846416,350.118411 292.7232,347.9424 L295.9488,341.8752 C297.075206,342.873605 298.188794,343.615998 299.2896,344.1024 C300.390406,344.588802 301.478395,344.832 302.5536,344.832 C303.782406,344.832 304.697597,344.550403 305.2992,343.9872 C305.900803,343.423997 306.2016,342.784004 306.2016,342.0672 C306.2016,341.631998 306.124801,341.254402 305.9712,340.9344 C305.817599,340.614398 305.561602,340.320001 305.2032,340.0512 C304.844798,339.782399 304.377603,339.532801 303.8016,339.3024 C303.225597,339.071999 302.528004,338.816001 301.7088,338.5344 C300.735995,338.227198 299.782405,337.888002 298.848,337.5168 C297.913595,337.145598 297.081604,336.652803 296.352,336.0384 C295.622396,335.423997 295.033602,334.649605 294.5856,333.7152 C294.137598,332.780795 293.9136,331.596807 293.9136,330.1632 C293.9136,328.729593 294.150398,327.430406 294.624,326.2656 C295.097602,325.100794 295.763196,324.102404 296.6208,323.2704 C297.478404,322.438396 298.527994,321.792002 299.7696,321.3312 C301.011206,320.870398 302.399992,320.64 303.936,320.64 C305.369607,320.64 306.867192,320.838398 308.4288,321.2352 C309.990408,321.632002 311.487993,322.214396 312.9216,322.9824 L309.9264,328.8576 Z M366.8352,339.648 L363.456,330.0096 L360.0768,339.648 L366.8352,339.648 Z M368.832,345.3696 L358.08,345.3696 L356.352,350.4 L348.3264,350.4 L359.3472,321.4464 L367.5648,321.4464 L378.5856,350.4 L370.56,350.4 L368.832,345.3696 Z M391.488,350.4 L391.488,321.4464 L399.0144,321.4464 L412.9152,339.1488 L412.9152,321.4464 L420.4032,321.4464 L420.4032,350.4 L412.9152,350.4 L399.0144,332.6976 L399.0144,350.4 L391.488,350.4 Z M450.7008,334.1952 L465.6384,334.1952 C465.6384,335.731208 465.574401,337.126394 465.4464,338.3808 C465.318399,339.635206 465.062402,340.799995 464.6784,341.8752 C464.140797,343.385608 463.411205,344.723194 462.4896,345.888 C461.567995,347.052806 460.486406,348.025596 459.2448,348.8064 C458.003194,349.587204 456.640007,350.182398 455.1552,350.592 C453.670393,351.001602 452.108808,351.2064 450.4704,351.2064 C448.217589,351.2064 446.163209,350.835204 444.3072,350.0928 C442.451191,349.350396 440.857607,348.307207 439.5264,346.9632 C438.195193,345.619193 437.158404,344.006409 436.416,342.1248 C435.673596,340.243191 435.3024,338.163211 435.3024,335.8848 C435.3024,333.631989 435.667196,331.564809 436.3968,329.6832 C437.126404,327.801591 438.163193,326.195207 439.5072,324.864 C440.851207,323.532793 442.470391,322.496004 444.3648,321.7536 C446.259209,321.011196 448.371188,320.64 450.7008,320.64 C453.721615,320.64 456.371189,321.292793 458.6496,322.5984 C460.928011,323.904007 462.732793,325.926386 464.064,328.6656 L456.9216,331.6224 C456.255997,330.035192 455.392005,328.896003 454.3296,328.2048 C453.267195,327.513597 452.057607,327.168 450.7008,327.168 C449.574394,327.168 448.550405,327.379198 447.6288,327.8016 C446.707195,328.224002 445.920003,328.825596 445.2672,329.6064 C444.614397,330.387204 444.102402,331.327994 443.7312,332.4288 C443.359998,333.529606 443.1744,334.758393 443.1744,336.1152 C443.1744,337.344006 443.334398,338.483195 443.6544,339.5328 C443.974402,340.582405 444.454397,341.491196 445.0944,342.2592 C445.734403,343.027204 446.527995,343.622398 447.4752,344.0448 C448.422405,344.467202 449.523194,344.6784 450.7776,344.6784 C451.520004,344.6784 452.236797,344.595201 452.928,344.4288 C453.619203,344.262399 454.239997,343.993602 454.7904,343.6224 C455.340803,343.251198 455.795198,342.771203 456.1536,342.1824 C456.512002,341.593597 456.755199,340.876804 456.8832,340.032 L450.7008,340.032 L450.7008,334.1952 Z M496.4736,327.8208 L487.5264,327.8208 L487.5264,332.6592 L495.9744,332.6592 L495.9744,339.0336 L487.5264,339.0336 L487.5264,344.0256 L496.4736,344.0256 L496.4736,350.4 L480,350.4 L480,321.4464 L496.4736,321.4464 L496.4736,327.8208 Z M519.0144,321.4464 L519.0144,344.0256 L528.0384,344.0256 L528.0384,350.4 L511.488,350.4 L511.488,321.4464 L519.0144,321.4464 Z M557.9904,327.8208 L549.0432,327.8208 L549.0432,332.6592 L557.4912,332.6592 L557.4912,339.0336 L549.0432,339.0336 L549.0432,344.0256 L557.9904,344.0256 L557.9904,350.4 L541.5168,350.4 L541.5168,321.4464 L557.9904,321.4464 L557.9904,327.8208 Z M588.9024,328.8576 C588.083196,328.191997 587.264004,327.699202 586.4448,327.3792 C585.625596,327.059198 584.832004,326.8992 584.064,326.8992 C583.091195,326.8992 582.297603,327.129598 581.6832,327.5904 C581.068797,328.051202 580.7616,328.652796 580.7616,329.3952 C580.7616,329.907203 580.915198,330.329598 581.2224,330.6624 C581.529602,330.995202 581.932798,331.283199 582.432,331.5264 C582.931202,331.769601 583.494397,331.980799 584.1216,332.16 C584.748803,332.339201 585.369597,332.531199 585.984,332.736 C588.441612,333.555204 590.239994,334.649593 591.3792,336.0192 C592.518406,337.388807 593.088,339.174389 593.088,341.376 C593.088,342.860807 592.838402,344.204794 592.3392,345.408 C591.839998,346.611206 591.110405,347.641596 590.1504,348.4992 C589.190395,349.356804 588.012807,350.022398 586.6176,350.496 C585.222393,350.969602 583.641609,351.2064 581.8752,351.2064 C578.214382,351.2064 574.822416,350.118411 571.6992,347.9424 L574.9248,341.8752 C576.051206,342.873605 577.164794,343.615998 578.2656,344.1024 C579.366406,344.588802 580.454395,344.832 581.5296,344.832 C582.758406,344.832 583.673597,344.550403 584.2752,343.9872 C584.876803,343.423997 585.1776,342.784004 585.1776,342.0672 C585.1776,341.631998 585.100801,341.254402 584.9472,340.9344 C584.793599,340.614398 584.537602,340.320001 584.1792,340.0512 C583.820798,339.782399 583.353603,339.532801 582.7776,339.3024 C582.201597,339.071999 581.504004,338.816001 580.6848,338.5344 C579.711995,338.227198 578.758405,337.888002 577.824,337.5168 C576.889595,337.145598 576.057604,336.652803 575.328,336.0384 C574.598396,335.423997 574.009602,334.649605 573.5616,333.7152 C573.113598,332.780795 572.8896,331.596807 572.8896,330.1632 C572.8896,328.729593 573.126398,327.430406 573.6,326.2656 C574.073602,325.100794 574.739196,324.102404 575.5968,323.2704 C576.454404,322.438396 577.503994,321.792002 578.7456,321.3312 C579.987206,320.870398 581.375992,320.64 582.912,320.64 C584.345607,320.64 585.843192,320.838398 587.4048,321.2352 C588.966408,321.632002 590.463993,322.214396 591.8976,322.9824 L588.9024,328.8576 Z" id="LOS-ANGELES" fill="#FF9BC4"></path>
                <path d="M244.8,241.368 C246.624009,241.031998 248.723988,240.768001 251.1,240.576 C253.476012,240.383999 255.64799,240.288 257.616,240.288 C259.824011,240.288 261.92399,240.527998 263.916,241.008 C265.90801,241.488002 267.659992,242.279994 269.172,243.384 C270.684008,244.488006 271.895995,245.927991 272.808,247.704 C273.720005,249.480009 274.176,251.639987 274.176,254.184 C274.176,256.15201 273.852003,257.891992 273.204,259.404 C272.555997,260.916008 271.764005,262.211995 270.828,263.292 C269.891995,264.372005 268.920005,265.247997 267.912,265.92 C266.903995,266.592003 266.040004,267.071999 265.32,267.36 L278.64,291.264 L271.656,291.264 L259.776,269.088 L250.776,269.088 L250.776,291.264 L244.8,291.264 L244.8,241.368 Z M257.76,245.472 L255.816,245.472 C255.143997,245.472 254.496003,245.496 253.872,245.544 C253.247997,245.592 252.660003,245.64 252.108,245.688 C251.555997,245.736 251.112002,245.808 250.776,245.904 L250.776,264.48 L256.392,264.48 C259.704017,264.48 262.439989,263.664008 264.6,262.032 C266.760011,260.399992 267.84,257.856017 267.84,254.4 C267.84,251.807987 266.952009,249.672008 265.176,247.992 C263.399991,246.311992 260.928016,245.472 257.76,245.472 Z M306.936,255.264 L317.16,255.264 L317.16,279.816 C317.16,282.168012 317.303999,284.423989 317.592,286.584 L322.416,286.584 L322.416,291.264 L312.84,291.264 L312.624,285.144 L312.336,285.144 C311.087994,287.20801 309.43201,288.887994 307.368,290.184 C305.30399,291.480006 302.808015,292.128 299.88,292.128 C297.671989,292.128 295.788008,291.876003 294.228,291.372 C292.667992,290.867997 291.384005,289.992006 290.376,288.744 C289.367995,287.495994 288.624002,285.82801 288.144,283.74 C287.663998,281.65199 287.424,279.048016 287.424,275.928 L287.424,260.088 L282.6,260.088 L282.6,255.264 L293.04,255.264 L293.04,274.776 C293.04,276.74401 293.123999,278.507992 293.292,280.068 C293.460001,281.628008 293.807997,282.947995 294.336,284.028 C294.864003,285.108005 295.643995,285.923997 296.676,286.476 C297.708005,287.028003 299.087991,287.304 300.816,287.304 C303.312012,287.304 305.483991,286.488008 307.332,284.856 C309.180009,283.223992 310.583995,281.184012 311.544,278.736 L311.544,260.088 L306.936,260.088 L306.936,255.264 Z M324.144,240.864 L335.664,240.864 L335.664,259.368 L336.024,259.368 C337.272006,257.783992 338.87999,256.560004 340.848,255.696 C342.81601,254.831996 344.951988,254.4 347.256,254.4 C357.816053,254.4 363.096,260.495939 363.096,272.688 C363.096,278.880031 361.392017,283.619984 357.984,286.908 C354.575983,290.196016 349.728031,291.84 343.44,291.84 C340.463985,291.84 337.776012,291.552003 335.376,290.976 C332.975988,290.399997 331.224006,289.728004 330.12,288.96 L330.12,245.688 L324.144,245.688 L324.144,240.864 Z M346.536,259.224 C343.655986,259.224 341.328009,260.039992 339.552,261.672 C337.775991,263.304008 336.480004,265.607985 335.664,268.584 L335.664,285.144 C336.768006,285.720003 338.087992,286.175998 339.624,286.512 C341.160008,286.848002 342.767992,287.016 344.448,287.016 C346.36801,287.016 348.107992,286.740003 349.668,286.188 C351.228008,285.635997 352.559994,284.772006 353.664,283.596 C354.768006,282.419994 355.619997,280.920009 356.22,279.096 C356.820003,277.271991 357.12,275.112012 357.12,272.616 C357.12,270.791991 356.928002,269.064008 356.544,267.432 C356.159998,265.799992 355.548004,264.372006 354.708,263.148 C353.867996,261.923994 352.776007,260.964003 351.432,260.268 C350.087993,259.571997 348.45601,259.224 346.536,259.224 Z M389.592,285.72 L392.328,285.72 L401.256,255.264 L407.088,255.264 L397.08,287.592 C396.551997,289.272008 396.012003,291.179989 395.46,293.316 C394.907997,295.452011 394.128005,297.455991 393.12,299.328 C392.111995,301.200009 390.744009,302.783994 389.016,304.08 C387.287991,305.376006 385.032014,306.024 382.248,306.024 C381.623997,306.024 380.964003,305.952001 380.268,305.808 C379.571997,305.663999 378.888003,305.484001 378.216,305.268 C377.543997,305.051999 376.920003,304.800001 376.344,304.512 C375.767997,304.223999 375.336001,303.936001 375.048,303.648 L377.064,298.464 C377.352001,298.704001 377.747997,298.943999 378.252,299.184 C378.756003,299.424001 379.307997,299.627999 379.908,299.796 C380.508003,299.964001 381.095997,300.107999 381.672,300.228 C382.248003,300.348001 382.727998,300.408 383.112,300.408 C386.712018,300.408 389.159994,297.36003 390.456,291.264 L385.632,291.264 L370.512,255.264 L376.992,255.264 L389.592,285.72 Z M443.376,246.336 C442.559996,245.999998 441.660005,245.748001 440.676,245.58 C439.691995,245.411999 438.504007,245.328 437.112,245.328 C435.14399,245.328 433.212009,245.687996 431.316,246.408 C429.419991,247.128004 427.740007,248.303992 426.276,249.936 C424.811993,251.568008 423.636004,253.703987 422.748,256.344 C421.859996,258.984013 421.416,262.223981 421.416,266.064 C421.416,269.520017 421.811996,272.543987 422.604,275.136 C423.396004,277.728013 424.499993,279.887991 425.916,281.616 C427.332007,283.344009 429.03599,284.639996 431.028,285.504 C433.02001,286.368004 435.239988,286.8 437.688,286.8 C438.936006,286.8 440.099995,286.692001 441.18,286.476 C442.260005,286.259999 443.255995,285.960002 444.168,285.576 L444.168,278.376 L449.496,278.376 L449.496,288.096 L449.568,288.24 C448.127993,289.344006 446.304011,290.267996 444.096,291.012 C441.887989,291.756004 439.200016,292.128 436.032,292.128 C433.007985,292.128 430.212013,291.612005 427.644,290.58 C425.075987,289.547995 422.856009,287.976011 420.984,285.864 C419.111991,283.751989 417.660005,281.052016 416.628,277.764 C415.595995,274.475984 415.08,270.576023 415.08,266.064 C415.08,261.359976 415.655994,257.364016 416.808,254.076 C417.960006,250.787984 419.51999,248.10001 421.488,246.012 C423.45601,243.92399 425.747987,242.400005 428.364,241.44 C430.980013,240.479995 433.775985,240 436.752,240 C438.384008,240 439.799994,240.059999 441,240.18 C442.200006,240.300001 443.255995,240.467999 444.168,240.684 C445.080005,240.900001 445.883997,241.175998 446.58,241.512 C447.276003,241.848002 447.959997,242.231998 448.632,242.664 L448.704,242.664 L448.704,254.04 L443.376,254.04 L443.376,246.336 Z M457.704,273.264 C457.704,267.455971 459.215985,262.860017 462.24,259.476 C465.264015,256.091983 469.583972,254.4 475.2,254.4 C478.224015,254.4 480.827989,254.891995 483.012,255.876 C485.196011,256.860005 487.007993,258.191992 488.448,259.872 C489.888007,261.552008 490.955997,263.543988 491.652,265.848 C492.348003,268.152012 492.696,270.623987 492.696,273.264 C492.696,276.144014 492.312004,278.747988 491.544,281.076 C490.775996,283.404012 489.648007,285.383992 488.16,287.016 C486.671993,288.648008 484.836011,289.907996 482.652,290.796 C480.467989,291.684004 477.984014,292.128 475.2,292.128 C472.223985,292.128 469.632011,291.636005 467.424,290.652 C465.215989,289.667995 463.392007,288.336008 461.952,286.656 C460.511993,284.975992 459.444003,282.984012 458.748,280.68 C458.051997,278.375988 457.704,275.904013 457.704,273.264 Z M463.68,273.264 C463.68,274.944008 463.883998,276.623992 464.292,278.304 C464.700002,279.984008 465.359995,281.495993 466.272,282.84 C467.184005,284.184007 468.371993,285.263996 469.836,286.08 C471.300007,286.896004 473.087989,287.304 475.2,287.304 C479.040019,287.304 481.93199,286.116012 483.876,283.74 C485.82001,281.363988 486.792,277.872023 486.792,273.264 C486.792,271.535991 486.588002,269.844008 486.18,268.188 C485.771998,266.531992 485.100005,265.032007 484.164,263.688 C483.227995,262.343993 482.028007,261.264004 480.564,260.448 C479.099993,259.631996 477.312011,259.224 475.2,259.224 C471.359981,259.224 468.48001,260.399988 466.56,262.752 C464.63999,265.104012 463.68,268.607977 463.68,273.264 Z M503.496,267.864 C503.496,267.431998 503.484,266.868003 503.46,266.172 C503.436,265.475997 503.4,264.756004 503.352,264.012 C503.304,263.267996 503.244,262.536004 503.172,261.816 C503.1,261.095996 503.016,260.472003 502.92,259.944 L498.096,259.944 L498.096,255.264 L507.744,255.264 L508.392,261.096 L508.752,261.096 C509.232002,260.279996 509.867996,259.476004 510.66,258.684 C511.452004,257.891996 512.375995,257.172003 513.432,256.524 C514.488005,255.875997 515.663994,255.360002 516.96,254.976 C518.256006,254.591998 519.623993,254.4 521.064,254.4 C523.272011,254.4 525.227991,254.639998 526.932,255.12 C528.636009,255.600002 530.051994,256.451994 531.18,257.676 C532.308006,258.900006 533.159997,260.55599 533.736,262.644 C534.312003,264.73201 534.6,267.383984 534.6,270.6 L534.6,291.264 L528.984,291.264 L528.984,271.68 C528.984,267.69598 528.336006,264.69601 527.04,262.68 C525.743994,260.66399 523.392017,259.656 519.984,259.656 C518.735994,259.656 517.524006,259.907997 516.348,260.412 C515.171994,260.916003 514.104005,261.575996 513.144,262.392 C512.183995,263.208004 511.344004,264.155995 510.624,265.236 C509.903996,266.316005 509.376002,267.455994 509.04,268.656 L509.04,291.264 L503.496,291.264 L503.496,267.864 Z M546.336,291.264 L546.336,286.44 L554.904,286.44 L554.904,260.088 L546.336,260.088 L546.336,255.264 L554.904,255.264 L554.904,253.248 C554.904,248.735977 556.079988,245.47201 558.432,243.456 C560.784012,241.43999 564.143978,240.432 568.512,240.432 C570.096008,240.432 571.511994,240.527999 572.76,240.72 C574.008006,240.912001 575.351993,241.295997 576.792,241.872 L575.496,246.552 C574.247994,246.023997 573.048006,245.676001 571.896,245.508 C570.743994,245.339999 569.688005,245.256 568.728,245.256 C565.559984,245.256 563.400006,246.035992 562.248,247.596 C561.095994,249.156008 560.52,251.711982 560.52,255.264 L575.424,255.264 L575.424,260.088 L560.52,260.088 L560.52,286.44 L575.424,286.44 L575.424,291.264 L546.336,291.264 Z" id="RubyConf-Copy" fill="#FFFFFF"></path>
                <polygon id="Rectangle-20-Copy-18" fill="#2D2441" points="307.2 367.2 499.2 367.2 448.868493 420 359.931507 420"></polygon>
                <path d="M364.992,379.2 C366.515208,379.2 367.831194,379.491197 368.94,380.0736 C370.048806,380.656003 370.894397,381.439995 371.4768,382.4256 C372.059203,383.411205 372.3504,384.519994 372.3504,385.752 C372.3504,387.118407 372.036803,388.445594 371.4096,389.7336 C370.782397,391.021606 369.763207,392.443992 368.352,394.0008 C366.940793,395.557608 364.947213,397.500788 362.3712,399.8304 L372.888,399.8304 L372.4848,402.8544 L358.0704,402.8544 L358.0704,399.9984 C360.982415,397.198386 363.155193,395.008808 364.5888,393.4296 C366.022407,391.850392 367.030397,390.500806 367.6128,389.3808 C368.195203,388.260794 368.4864,387.129606 368.4864,385.9872 C368.4864,384.822394 368.150403,383.904003 367.4784,383.232 C366.806397,382.559997 365.888006,382.224 364.7232,382.224 C363.715195,382.224 362.858404,382.408798 362.1528,382.7784 C361.447196,383.148002 360.736004,383.769596 360.0192,384.6432 L357.6,382.7616 C358.518405,381.574394 359.571194,380.684003 360.7584,380.0904 C361.945606,379.496797 363.356792,379.2 364.992,379.2 Z M390.8928,379.2 C393.468813,379.2 395.428793,380.23599 396.7728,382.308 C398.116807,384.38001 398.7888,387.353581 398.7888,391.2288 C398.7888,395.104019 398.116807,398.08319 396.7728,400.1664 C395.428793,402.24961 393.468813,403.2912 390.8928,403.2912 C388.316787,403.2912 386.356807,402.24961 385.0128,400.1664 C383.668793,398.08319 382.9968,395.104019 382.9968,391.2288 C382.9968,387.353581 383.668793,384.38001 385.0128,382.308 C386.356807,380.23599 388.316787,379.2 390.8928,379.2 Z M390.8928,382.0896 C389.548793,382.0896 388.529603,382.817593 387.8352,384.2736 C387.140797,385.729607 386.7936,388.047984 386.7936,391.2288 C386.7936,394.454416 387.140797,396.795193 387.8352,398.2512 C388.529603,399.707207 389.548793,400.4352 390.8928,400.4352 C392.236807,400.4352 393.255997,399.707207 393.9504,398.2512 C394.644803,396.795193 394.992,394.454416 394.992,391.2288 C394.992,388.025584 394.644803,385.701607 393.9504,384.2568 C393.255997,382.811993 392.236807,382.0896 390.8928,382.0896 Z M390.8928,389.0784 C391.520003,389.0784 392.046398,389.291198 392.472,389.7168 C392.897602,390.142402 393.1104,390.657597 393.1104,391.2624 C393.1104,391.889603 392.897602,392.415998 392.472,392.8416 C392.046398,393.267202 391.520003,393.48 390.8928,393.48 C390.265597,393.48 389.744802,393.267202 389.3304,392.8416 C388.915998,392.415998 388.7088,391.889603 388.7088,391.2624 C388.7088,390.657597 388.915998,390.142402 389.3304,389.7168 C389.744802,389.291198 390.265597,389.0784 390.8928,389.0784 Z M423.5808,399.8976 L423.5808,402.8544 L409.5696,402.8544 L409.5696,399.8976 L415.2144,399.8976 L415.2144,383.5344 L410.1072,386.6592 L408.4944,384.0384 L415.6176,379.6704 L418.944,379.6704 L418.944,399.8976 L423.5808,399.8976 Z M448.0368,385.1808 C448.0368,386.278405 447.723203,387.230396 447.096,388.0368 C446.468797,388.843204 445.505606,389.615996 444.2064,390.3552 C445.752008,391.049603 446.933596,391.923195 447.7512,392.976 C448.568804,394.028805 448.9776,395.238393 448.9776,396.6048 C448.9776,397.859206 448.647203,398.995995 447.9864,400.0152 C447.325597,401.034405 446.373606,401.835197 445.1304,402.4176 C443.887194,403.000003 442.425608,403.2912 440.7456,403.2912 C439.043191,403.2912 437.581606,403.000003 436.3608,402.4176 C435.139994,401.835197 434.216003,401.045605 433.5888,400.0488 C432.961597,399.051995 432.648,397.937606 432.648,396.7056 C432.648,394.062387 434.148785,392.068807 437.1504,390.7248 C435.895994,390.075197 434.988803,389.341604 434.4288,388.524 C433.868797,387.706396 433.5888,386.659206 433.5888,385.3824 C433.5888,384.060793 433.930397,382.935205 434.6136,382.0056 C435.296803,381.075995 436.192794,380.376002 437.3016,379.9056 C438.410406,379.435198 439.580794,379.2 440.8128,379.2 C442.134407,379.2 443.338395,379.429598 444.4248,379.8888 C445.511205,380.348002 446.384797,381.025596 447.0456,381.9216 C447.706403,382.817604 448.0368,383.903994 448.0368,385.1808 Z M437.2176,385.416 C437.2176,386.155204 437.385598,386.759998 437.7216,387.2304 C438.057602,387.700802 438.527997,388.087198 439.1328,388.3896 C439.737603,388.692002 440.577595,389.033598 441.6528,389.4144 C442.638405,388.809597 443.343998,388.204803 443.7696,387.6 C444.195202,386.995197 444.408,386.256004 444.408,385.3824 C444.408,384.329595 444.094403,383.495203 443.4672,382.8792 C442.839997,382.263197 441.955206,381.9552 440.8128,381.9552 C439.670394,381.9552 438.785603,382.257597 438.1584,382.8624 C437.531197,383.467203 437.2176,384.318395 437.2176,385.416 Z M445.1136,396.6384 C445.1136,395.742396 444.900802,395.008803 444.4752,394.4376 C444.049598,393.866397 443.472804,393.401602 442.7448,393.0432 C442.016796,392.684798 440.958407,392.259202 439.5696,391.7664 C437.53119,392.819205 436.512,394.420789 436.512,396.5712 C436.512,397.780806 436.875996,398.727197 437.604,399.4104 C438.332004,400.093603 439.390393,400.4352 440.7792,400.4352 C442.168007,400.4352 443.237596,400.082404 443.988,399.3768 C444.738404,398.671196 445.1136,397.758406 445.1136,396.6384 Z" id="2018-copy-18" fill="#FFBD5C"></path>
            </g>
        </g>
    </g>
</svg>